<svg width="14" height="14" viewBox="0 0 14 14" fill="none" xmlns="http://www.w3.org/2000/svg">
<g id="google-place 1" clip-path="url(#clip0_2_193)">
<g id="Group">
<path id="Vector" d="M7.17659 0.00291797C4.33348 -0.0928964 1.99866 2.18329 1.99866 5.00476C1.99866 8.20681 5.07153 10.5306 6.79388 13.8726C6.88132 14.0423 7.12559 14.0425 7.21333 13.8729C8.77144 10.8658 11.4345 8.84933 11.928 5.95233C12.439 2.95449 10.2159 0.105384 7.17659 0.00291797ZM7.00336 7.62626C5.55557 7.62626 4.38186 6.45252 4.38186 5.00476C4.38186 3.55699 5.55559 2.38326 7.00336 2.38326C8.45115 2.38326 9.62488 3.55699 9.62488 5.00476C9.62488 6.45252 8.45115 7.62626 7.00336 7.62626Z" fill="white"/>
</g>
</g>
<defs>
<clipPath id="clip0_2_193">
<rect width="14" height="14" fill="white"/>
</clipPath>
</defs>
</svg>
