<svg width="14" height="14" viewBox="0 0 14 14" fill="none" xmlns="http://www.w3.org/2000/svg">
<g id="phone (2) 2" clip-path="url(#clip0_2_189)">
<g id="Group">
<g id="Group_2">
<path id="Vector" d="M13.6188 10.2746L11.6651 8.32084C10.9673 7.62308 9.78114 7.90221 9.50203 8.80928C9.2927 9.43729 8.59494 9.78617 7.96695 9.64659C6.57142 9.29771 4.68745 7.48352 4.33857 6.01822C4.12924 5.3902 4.5479 4.69244 5.17589 4.48314C6.08298 4.20403 6.36209 3.01783 5.66433 2.32007L3.71058 0.366326C3.15237 -0.122109 2.31505 -0.122109 1.82662 0.366326L0.500865 1.69208C-0.824889 3.08761 0.640418 6.78576 3.91991 10.0653C7.19941 13.3447 10.8976 14.8799 12.2931 13.4843L13.6188 12.1585C14.1073 11.6003 14.1073 10.763 13.6188 10.2746Z" fill="white"/>
</g>
</g>
</g>
<defs>
<clipPath id="clip0_2_189">
<rect width="14" height="14" fill="white"/>
</clipPath>
</defs>
</svg>
