<svg width="209" height="85" viewBox="0 0 209 85" fill="none" xmlns="http://www.w3.org/2000/svg">
<path d="M6.6 34.12L6.92 33.8C7.50667 33.2133 8.36 32.7333 9.48 32.36C11.2933 31.56 13.4533 31.16 15.96 31.16C17.88 31.16 19.8 31.24 21.72 31.4C22.3067 31.5067 22.7333 31.2933 23 30.76C23.8 29.5867 25 27.72 26.6 25.16C27.3467 23.9867 29.1067 21.2133 31.88 16.84L38.84 6.92C39 6.76 39.1867 6.49333 39.4 6.12C39.6133 5.69333 39.7467 5.42666 39.8 5.32C39.8 5.26667 39.8533 5.16 39.96 5C39.6933 5 39.5333 5.02666 39.48 5.08C39.0533 5.4 38.3867 5.85333 37.48 6.44C36.5733 7.02666 35.96 7.42666 35.64 7.64C33.6667 8.86666 31.5067 9.85333 29.16 10.6C28.84 10.7067 28.3333 10.8933 27.64 11.16C26.9467 11.3733 26.44 11.5067 26.12 11.56L18.68 13.4C17.1333 13.7733 15.7733 14.1733 14.6 14.6C12.36 15.1867 10.6 15.8267 9.32 16.52C8.78667 16.7333 7.58667 17.4 5.72 18.52L2.28 21.08C2.22667 21.08 2.17333 21.1333 2.12 21.24C2.01333 21.2933 1.93333 21.32 1.88 21.32C1.88 21.2133 1.85333 21.16 1.8 21.16C1.85333 21.0533 1.93333 20.92 2.04 20.76C2.14667 20.6 2.25333 20.4933 2.36 20.44C2.62667 20.28 2.97333 20.04 3.4 19.72C3.82667 19.3467 4.2 19.0533 4.52 18.84C4.84 18.5733 5.16 18.36 5.48 18.2C7.13333 17.0267 8.78667 16.0933 10.44 15.4C10.6533 15.2933 12.2 14.7867 15.08 13.88L27 10.6C31.2667 9.42666 35.2667 7.48 39 4.76C39.1067 4.65333 40.7333 3.37333 43.88 0.919998C44.0933 0.706664 44.3067 0.546665 44.52 0.44L44.6 0.519999C44.6 0.573331 44.6533 0.679998 44.76 0.839999L44.84 0.999997C42.2267 4.78666 40.1467 7.88 38.6 10.28C36.2 13.8 33.16 18.52 29.48 24.44C28.9467 25.1867 28.2533 26.3067 27.4 27.8C26.5467 29.24 26.04 30.0667 25.88 30.28C25.6667 30.8133 25.5867 31.1867 25.64 31.4C25.6933 31.56 25.96 31.64 26.44 31.64C28.52 31.6933 31.5333 31.72 35.48 31.72H38.36C38.84 31.72 39.16 31.6133 39.32 31.4C39.8 30.6 40.4933 29.5333 41.4 28.2C42.3067 26.8133 42.92 25.88 43.24 25.4C43.3467 25.24 43.8 24.5467 44.6 23.32C45.4 22.04 46.04 21.08 46.52 20.44L51.16 13.64C51.48 13.32 51.8267 12.84 52.2 12.2C52.6267 11.56 53 11.08 53.32 10.76C53.3733 10.6 53.8 10.52 54.6 10.52H54.84C54.7867 10.6267 54.76 10.76 54.76 10.92C54.8133 11.08 54.8133 11.1867 54.76 11.24C53.64 13.0533 52.36 15 50.92 17.08C46.44 24.28 43.8533 28.4133 43.16 29.48C43.1067 29.5867 42.8933 29.88 42.52 30.36C42.2 30.7867 42.04 31.1333 42.04 31.4C42.2533 31.6667 42.8667 31.8 43.88 31.8C44.9467 31.7467 46.3067 31.48 47.96 31C49.6667 30.4667 51.0267 29.8267 52.04 29.08C52.1467 29.0267 52.3067 29 52.52 29V29.08C51.24 30.68 48.2267 31.72 43.48 32.2C42.2533 31.9867 41.0533 32.6 39.88 34.04C38.8667 35.48 37.0267 38.1467 34.36 42.04L26.84 53.48L25 56.2C24.52 56.68 24.0933 56.8133 23.72 56.6C23.1867 56.2267 23.0267 55.8267 23.24 55.4C23.3467 55.1867 23.5067 54.8933 23.72 54.52C23.9867 54.1467 24.1733 53.88 24.28 53.72C28.2267 47.6933 31.4267 42.76 33.88 38.92C35.9067 36.0933 37.1867 34.2533 37.72 33.4C37.8267 33.2933 37.9067 33.1067 37.96 32.84C38.0133 32.5733 38.0667 32.4133 38.12 32.36C37.8533 32.2533 37.6133 32.2 37.4 32.2H27.64H25.88C25.1333 32.1467 24.52 32.4667 24.04 33.16L20.12 39.32C16.8133 44.28 13.8533 48.3067 11.24 51.4C8.46667 54.8667 6.30667 57.16 4.76 58.28C3.48 59.08 2.54667 59.5067 1.96 59.56C1.53333 59.56 1.13333 59.4267 0.76 59.16C0.333333 58.9467 0.12 58.6533 0.12 58.28C0.12 56.0933 1.02667 54.3333 2.84 53C2.36 53.5333 1.88 54.1733 1.4 54.92C0.76 56.04 0.44 57.08 0.44 58.04C0.44 58.8933 0.84 59.24 1.64 59.08C2.6 58.76 3.24 58.44 3.56 58.12C5.16 56.4133 6.68 54.6533 8.12 52.84C11 49.1067 13.2933 45.9067 15 43.24C15.32 42.7067 17.5067 39.24 21.56 32.84C21.72 32.68 21.8 32.6 21.8 32.6C22.0133 32.0133 21.8533 31.72 21.32 31.72C20.7867 31.72 19.96 31.6667 18.84 31.56C17.72 31.4533 16.8667 31.4 16.28 31.4C15.7467 31.3467 14.92 31.3733 13.8 31.48C11.24 31.9067 9.16 32.7067 7.56 33.88C7.50667 33.9333 7.37333 34.0133 7.16 34.12C6.94667 34.1733 6.78667 34.2533 6.68 34.36C6.68 34.3067 6.65333 34.2267 6.6 34.12ZM63.7788 37.16C61.6988 38.0133 59.4854 38.44 57.1388 38.44C57.0321 38.44 56.9254 38.44 56.8188 38.44C56.7121 38.3867 56.6321 38.36 56.5788 38.36C57.9654 36.6 58.5521 34.4667 58.3388 31.96C58.1254 29.4 57.0321 28.2267 55.0588 28.44C53.1921 28.6533 51.9654 29.6133 51.3788 31.32C50.7921 33.0267 51.0321 34.6 52.0988 36.04L51.2188 37.24C49.6187 39.1067 49.0321 40.8133 49.4587 42.36C49.6721 42.84 50.1254 43.1333 50.8187 43.24C51.4588 43.3467 52.0188 43.24 52.4988 42.92C53.8854 41.96 55.1921 40.5467 56.4188 38.68C56.9521 38.7867 57.6721 38.7867 58.5788 38.68C60.5521 38.4667 62.1521 38.12 63.3788 37.64C63.9121 37.5333 64.3921 37.2933 64.8188 36.92C64.9254 36.8133 64.9254 36.76 64.8188 36.76C64.6588 36.76 64.3121 36.8933 63.7788 37.16ZM53.0588 29.48C55.6721 27.9867 57.2721 28.4667 57.8588 30.92C58.3388 33 58.0454 35.08 56.9788 37.16C56.7654 37.64 56.5254 38.0133 56.2588 38.28C55.9388 38.28 55.5121 38.1467 54.9788 37.88C54.7654 37.7733 54.5254 37.5867 54.2588 37.32L53.7788 37L54.1788 36.52L55.7788 34.76C55.9388 34.6 56.0454 34.3867 56.0988 34.12C56.1521 33.8533 56.0988 33.6667 55.9388 33.56C55.8321 33.4 55.6188 33.3733 55.2988 33.48C54.7121 33.7467 53.7521 34.4933 52.4188 35.72C51.6188 34.6533 51.2988 33.5333 51.4588 32.36C51.6721 31.1333 52.2054 30.1733 53.0588 29.48ZM56.0188 38.6L55.4588 39.4C54.3388 40.9467 53.3521 41.9867 52.4988 42.52C51.9121 42.8933 51.4854 43 51.2188 42.84C50.9521 42.68 50.8454 42.36 50.8987 41.88C51.0054 41.4 51.6188 40.2533 52.7388 38.44C53.1121 37.8533 53.3788 37.48 53.5388 37.32C53.5921 37.3733 53.6721 37.4533 53.7788 37.56C53.9388 37.6667 54.0988 37.7733 54.2588 37.88C54.4188 37.9867 54.5788 38.0667 54.7388 38.12C55.3788 38.44 55.8054 38.6 56.0188 38.6ZM60.1837 56.36L64.2637 52.76C64.6371 52.3867 65.3038 51.72 66.2638 50.76C67.2771 49.8 68.0504 49.0533 68.5838 48.52C69.0638 48.0933 69.7571 47.4267 70.6638 46.52C71.6238 45.56 72.3704 44.84 72.9038 44.36C76.1571 41.4267 78.5304 39.4533 80.0238 38.44C80.1838 38.2267 81.0904 37.7733 82.7438 37.08C82.8504 37.0267 83.0371 37 83.3038 37C83.6238 36.9467 83.8638 36.8933 84.0238 36.84V37.08C82.2638 37.4 80.4238 38.28 78.5038 39.72C77.8638 40.36 76.7438 41.4267 75.1438 42.92C73.5438 44.36 72.3438 45.5067 71.5438 46.36C68.9304 48.7067 66.5038 50.9733 64.2637 53.16C63.9971 53.3733 63.5171 53.8267 62.8237 54.52C62.1304 55.2133 61.4904 55.7467 60.9037 56.12C60.2637 56.5467 59.6771 56.7867 59.1437 56.84C58.6104 56.7867 58.1304 56.5467 57.7037 56.12C57.2771 55.7467 57.0371 55.2667 56.9837 54.68C56.8237 53.56 57.0104 52.28 57.5437 50.84C57.9171 48.76 59.1971 45.8267 61.3837 42.04C61.8104 41.1333 62.5304 39.88 63.5437 38.28C64.5571 36.6267 65.1971 35.56 65.4638 35.08C67.5438 31.4533 69.0638 28.9733 70.0238 27.64C70.5038 26.9467 72.0504 24.68 74.6638 20.84C71.9971 20.84 70.5571 20.8933 70.3438 21C69.3838 21.16 67.8904 21.3467 65.8638 21.56C63.8904 21.7733 62.4237 21.96 61.4637 22.12C60.3437 22.28 59.2504 22.68 58.1837 23.32C57.6504 23.64 57.0637 24.04 56.4237 24.52C56.3704 24.0933 56.5571 23.6667 56.9837 23.24C57.2504 23.1867 57.7571 22.9733 58.5037 22.6C59.2504 22.2267 59.8637 22.0133 60.3437 21.96C62.6371 21.3733 66.2104 20.92 71.0638 20.6C73.7304 20.6 75.1971 20.3067 75.4638 19.72C76.4771 18.5467 77.7571 17.0533 79.3038 15.24C80.0504 14.4933 80.5304 14.2267 80.7438 14.44C81.0638 14.8667 81.0638 15.3733 80.7438 15.96C80.3704 16.3867 79.4904 17.6133 78.1038 19.64C77.6771 20.0667 77.5704 20.3333 77.7838 20.44C81.0371 20.3333 86.3704 19.7733 93.7838 18.76L93.8638 19.16C93.8104 19.16 93.0371 19.2667 91.5438 19.48C90.1038 19.64 89.3304 19.7467 89.2238 19.8C88.1038 19.96 86.9038 20.0933 85.6238 20.2C84.3438 20.3067 82.9038 20.4133 81.3038 20.52C79.7038 20.6267 78.4771 20.7067 77.6238 20.76C77.2504 20.8133 77.0104 20.9733 76.9038 21.24C74.0771 24.76 70.9571 29.4267 67.5438 35.24C65.1971 39.08 63.3037 42.4133 61.8637 45.24C61.4904 45.9333 60.3171 48.4667 58.3437 52.84C57.9171 53.8 57.8371 54.7067 58.1037 55.56C58.3704 56.4667 59.0637 56.7333 60.1837 56.36ZM92.5931 29.72C93.7131 29.8267 93.9798 30.36 93.3931 31.32C92.5398 32.4933 91.3398 33.1333 89.7931 33.24C88.3531 33.4 86.9931 34.8667 85.7131 37.64C84.3798 40.3067 84.0598 42.0933 84.7531 43C84.9131 43.2133 85.1531 43.32 85.4731 43.32C85.9531 43.3733 86.7798 42.9733 87.9531 42.12C88.7531 41.48 89.6065 40.8933 90.5131 40.36C91.4731 39.7733 92.6731 39.1333 94.1131 38.44C95.5531 37.7467 96.5665 37.24 97.1531 36.92C97.2598 36.8667 97.3931 36.84 97.5531 36.84C97.8731 36.84 97.8198 36.9467 97.3931 37.16C96.8065 37.48 95.9531 37.9333 94.8331 38.52C93.7131 39.0533 92.8065 39.5067 92.1131 39.88C91.4198 40.2533 90.6198 40.7333 89.7131 41.32C88.8065 41.8533 88.0331 42.3867 87.3931 42.92C86.8065 43.4533 86.0598 43.6667 85.1531 43.56C83.9798 43.3467 83.2865 42.4933 83.0731 41C82.8598 39.5067 83.0198 38.36 83.5531 37.56C86.3798 31.8 89.3931 29.1867 92.5931 29.72ZM92.4331 30.36C91.7398 30.52 90.8865 31.16 89.8731 32.28L89.3931 32.76C89.2331 32.92 89.3131 33 89.6331 33C90.6998 32.9467 91.6065 32.5733 92.3531 31.88C93.0465 31.4533 93.3665 31.0267 93.3131 30.6C93.3131 30.3333 93.0198 30.2533 92.4331 30.36ZM96.8325 38.12C100.299 30.8133 104.086 24.7333 108.193 19.88C112.299 14.9733 116.273 11.2667 120.113 8.76C120.699 8.38667 121.313 8.06667 121.953 7.8C122.646 7.53333 123.393 7.32 124.193 7.16C124.993 6.94667 125.633 7.02666 126.113 7.4C126.593 7.72 126.833 8.33333 126.833 9.24C126.513 10.68 125.419 12.7067 123.553 15.32C121.686 17.88 119.953 20.0667 118.353 21.88C116.753 23.64 115.233 25.2667 113.793 26.76C112.779 27.8267 110.379 29.88 106.593 32.92L102.592 35.72L99.6325 37.56C99.4192 37.6667 99.1525 37.9333 98.8325 38.36C98.0858 39.6933 97.4725 40.9467 96.9925 42.12C95.4458 46.0133 94.5658 48.4133 94.3525 49.32C94.0858 49.7467 93.8725 50.52 93.7125 51.64C93.5525 52.7067 93.7925 53.32 94.4325 53.48C95.9258 53.32 97.9525 52.12 100.513 49.88C103.126 47.64 105.739 45.1333 108.353 42.36C110.966 39.5333 112.433 37.9867 112.753 37.72C113.446 37.1867 113.899 36.84 114.113 36.68L114.193 36.76C114.033 36.9733 113.579 37.4267 112.833 38.12C112.619 38.3333 111.633 39.3733 109.873 41.24C108.113 43.0533 106.353 44.8667 104.593 46.68C102.886 48.44 100.993 50.0933 98.9125 51.64C96.8325 53.1333 95.1792 53.88 93.9525 53.88C91.6592 53.3467 91.9525 49.56 94.8325 42.52L96.8325 38.12ZM99.7925 36.76C103.206 35 107.473 31.8267 112.593 27.24C114.566 25.5333 117.286 22.5467 120.753 18.28C124.273 13.96 126.139 10.9467 126.353 9.24C126.353 8.54667 126.113 8.09333 125.633 7.88C125.206 7.66667 124.699 7.66667 124.113 7.88C123.526 8.04 122.966 8.28 122.433 8.6C121.899 8.86667 121.499 9.13333 121.233 9.4C120.113 10.4133 119.019 11.4533 117.953 12.52C116.886 13.5333 115.899 14.52 114.993 15.48C114.086 16.44 113.259 17.32 112.513 18.12C111.766 18.92 111.019 19.7733 110.273 20.68C109.579 21.5333 108.993 22.2533 108.513 22.84C108.033 23.4267 107.499 24.12 106.913 24.92C106.379 25.72 105.979 26.28 105.713 26.6C105.499 26.92 105.153 27.4267 104.673 28.12C104.246 28.76 104.006 29.1067 103.953 29.16C101.873 32.1467 100.486 34.68 99.7925 36.76ZM137.051 24.6C136.891 24.28 136.891 23.8533 137.051 23.32C137.211 22.7333 137.451 22.2533 137.771 21.88C139.745 19.16 142.571 17.24 146.251 16.12C149.611 15.1067 154.225 14.3867 160.091 13.96C160.731 13.96 161.451 13.3733 162.251 12.2C164.545 8.73333 166.705 6.14666 168.731 4.44C170.491 2.78666 172.598 1.66666 175.051 1.08C175.798 0.919998 176.411 1.05333 176.891 1.48C177.425 1.85333 177.718 2.41333 177.771 3.16C177.718 4.70666 177.158 5.98666 176.091 7C173.851 9.77333 170.705 11.7733 166.651 13C164.358 13.5867 162.491 14.92 161.051 17C159.078 19.56 156.438 23.5067 153.131 28.84C149.878 34.12 148.011 37.1333 147.531 37.88C146.838 38.9467 145.745 40.7067 144.251 43.16C142.811 45.56 141.665 47.4 140.811 48.68C140.811 48.68 140.651 49 140.331 49.64C140.918 49.6933 141.851 49.7467 143.131 49.8C144.411 49.8 145.398 49.8533 146.091 49.96C147.798 50.1733 151.265 50.6267 156.491 51.32C157.878 51.64 159.745 51.8 162.091 51.8C164.971 51.8 167.291 50.76 169.051 48.68L169.211 48.44C169.265 48.28 169.398 48.1467 169.611 48.04C169.451 48.4133 169.185 48.7867 168.811 49.16C168.491 49.5333 168.198 49.8267 167.931 50.04C167.718 50.2 167.318 50.4667 166.731 50.84C166.145 51.2133 165.771 51.4533 165.611 51.56C164.171 52.4667 162.385 52.8667 160.251 52.76C159.238 52.6 157.451 52.2533 154.891 51.72C152.331 51.1333 150.305 50.7333 148.811 50.52C145.718 50.2 142.785 50.0667 140.011 50.12C139.798 50.12 139.585 50.2 139.371 50.36C139.105 50.52 138.865 50.7333 138.651 51C138.385 51.2667 138.198 51.4267 138.091 51.48C137.345 52.12 136.758 52.4933 136.331 52.6C135.905 52.7067 135.345 52.6267 134.651 52.36C134.758 52.2533 134.891 52.0667 135.051 51.8C135.211 51.5333 135.371 51.3467 135.531 51.24C135.638 51.08 135.798 51 136.011 51C136.491 50.84 136.945 50.6267 137.371 50.36C137.745 50.0933 138.091 49.7467 138.411 49.32C138.731 48.8933 138.998 48.5467 139.211 48.28C139.371 48.0133 139.638 47.56 140.011 46.92C140.331 46.28 140.571 45.8267 140.731 45.56C142.065 43.3733 143.985 40.0933 146.491 35.72C149.051 31.3467 150.998 28.0667 152.331 25.88C153.131 24.4933 154.465 22.6 156.331 20.2C158.198 17.7467 159.505 15.88 160.251 14.6C160.518 14.3867 160.411 14.28 159.931 14.28C159.665 14.28 159.345 14.3067 158.971 14.36C154.385 14.84 151.265 15.2667 149.611 15.64C146.838 16.1733 144.225 17.1067 141.771 18.44C139.478 19.6667 137.905 21.72 137.051 24.6ZM164.491 12.52L164.011 13.32C164.171 13.3733 164.331 13.4 164.491 13.4C164.651 13.3467 164.811 13.2933 164.971 13.24C165.131 13.1867 165.238 13.16 165.291 13.16C169.505 11.88 172.811 10.04 175.211 7.64C176.438 5.93333 177.131 4.81333 177.291 4.28C177.558 3.64 177.478 2.86666 177.051 1.96C176.625 1.53333 176.038 1.42666 175.291 1.64C174.545 1.85333 173.958 2.14666 173.531 2.52C171.185 4.28 169.318 5.93333 167.931 7.48C167.558 7.90666 166.411 9.58666 164.491 12.52ZM177.294 37.16C175.214 38.0133 173.001 38.44 170.654 38.44C170.548 38.44 170.441 38.44 170.334 38.44C170.228 38.3867 170.148 38.36 170.094 38.36C171.481 36.6 172.068 34.4667 171.854 31.96C171.641 29.4 170.548 28.2267 168.574 28.44C166.708 28.6533 165.481 29.6133 164.894 31.32C164.308 33.0267 164.548 34.6 165.614 36.04L164.734 37.24C163.134 39.1067 162.548 40.8133 162.974 42.36C163.188 42.84 163.641 43.1333 164.334 43.24C164.974 43.3467 165.534 43.24 166.014 42.92C167.401 41.96 168.708 40.5467 169.934 38.68C170.468 38.7867 171.188 38.7867 172.094 38.68C174.068 38.4667 175.668 38.12 176.894 37.64C177.428 37.5333 177.908 37.2933 178.334 36.92C178.441 36.8133 178.441 36.76 178.334 36.76C178.174 36.76 177.828 36.8933 177.294 37.16ZM166.574 29.48C169.188 27.9867 170.788 28.4667 171.374 30.92C171.854 33 171.561 35.08 170.494 37.16C170.281 37.64 170.041 38.0133 169.774 38.28C169.454 38.28 169.028 38.1467 168.494 37.88C168.281 37.7733 168.041 37.5867 167.774 37.32L167.294 37L167.694 36.52L169.294 34.76C169.454 34.6 169.561 34.3867 169.614 34.12C169.668 33.8533 169.614 33.6667 169.454 33.56C169.348 33.4 169.134 33.3733 168.814 33.48C168.228 33.7467 167.268 34.4933 165.934 35.72C165.134 34.6533 164.814 33.5333 164.974 32.36C165.188 31.1333 165.721 30.1733 166.574 29.48ZM169.534 38.6L168.974 39.4C167.854 40.9467 166.868 41.9867 166.014 42.52C165.428 42.8933 165.001 43 164.734 42.84C164.468 42.68 164.361 42.36 164.414 41.88C164.521 41.4 165.134 40.2533 166.254 38.44C166.628 37.8533 166.894 37.48 167.054 37.32C167.108 37.3733 167.188 37.4533 167.294 37.56C167.454 37.6667 167.614 37.7733 167.774 37.88C167.934 37.9867 168.094 38.0667 168.254 38.12C168.894 38.44 169.321 38.6 169.534 38.6ZM183.219 38.12L181.699 39.56C179.726 41.5333 178.259 42.4133 177.299 42.2C176.606 42.04 176.499 41.24 176.979 39.8L177.539 38.28C177.966 37.1067 178.579 36.12 179.379 35.32L181.459 33.32C181.673 33.1067 182.313 32.68 183.379 32.04C183.806 31.8267 184.339 31.8 184.979 31.96C185.619 32.12 185.886 32.52 185.779 33.16C185.726 33.48 185.673 33.64 185.619 33.64C185.406 33.64 185.326 33.48 185.379 33.16C185.273 32.5733 184.979 32.4133 184.499 32.68C184.179 32.8933 183.939 33.08 183.779 33.24C181.699 35.2133 180.286 36.84 179.539 38.12C178.899 39.0267 178.499 39.6133 178.339 39.88C177.859 40.6267 177.726 41.1867 177.939 41.56C177.993 41.72 178.153 41.72 178.419 41.56C178.579 41.4533 178.793 41.32 179.059 41.16C179.379 40.9467 179.646 40.76 179.859 40.6C180.126 40.44 180.366 40.28 180.579 40.12C181.166 39.5867 181.993 38.7333 183.059 37.56C183.593 36.9733 184.633 35.8267 186.179 34.12C187.779 32.36 189.059 31.0267 190.019 30.12C190.499 29.48 190.926 29.4 191.299 29.88C191.459 30.0933 191.433 30.3333 191.219 30.6L187.619 35.64C187.566 35.7467 187.033 36.44 186.019 37.72L183.539 41.64L182.819 43.08C183.246 43.08 184.899 42.28 187.779 40.68C190.659 39.08 192.446 38.04 193.139 37.56C193.886 37.08 194.366 36.84 194.579 36.84C194.953 36.7867 194.819 36.9733 194.179 37.4C193.859 37.6667 193.486 37.88 193.059 38.04C192.099 38.68 189.459 40.1733 185.139 42.52L182.739 43.72C182.366 43.9333 182.099 44.1733 181.939 44.44L176.419 52.6L172.499 58.6L169.219 63.48C168.473 64.3867 167.459 65.7733 166.179 67.64C164.899 69.56 163.939 70.9467 163.299 71.8C163.033 72.1733 161.699 73.7733 159.299 76.6L157.779 78.28C156.926 79.24 156.259 79.9333 155.779 80.36C154.446 81.6933 153.406 82.68 152.659 83.32C151.966 83.96 151.033 84.4133 149.859 84.68C149.486 84.7333 149.139 84.6 148.819 84.28C147.379 82.84 147.219 80.1467 148.339 76.2C148.926 73.8533 149.806 71.64 150.979 69.56C153.646 65.08 155.859 61.9067 157.619 60.04C158.686 58.8667 159.539 58.0133 160.179 57.48C160.766 57 161.699 56.2 162.979 55.08C164.206 53.96 165.326 53.0267 166.339 52.28C167.353 51.48 168.366 50.7867 169.379 50.2C170.766 49.3467 172.899 48.12 175.779 46.52C176.099 46.3067 176.579 46.0667 177.219 45.8C177.806 45.5333 178.153 45.3733 178.259 45.32C178.526 45.16 178.766 44.9467 178.979 44.68L181.859 40.28L182.339 39.64C182.393 39.5333 182.473 39.4267 182.579 39.32C182.686 39.16 182.766 39.0267 182.819 38.92C182.926 38.76 183.033 38.6267 183.139 38.52C183.246 38.4133 183.299 38.3333 183.299 38.28C183.299 38.2267 183.273 38.1733 183.219 38.12ZM178.259 45.72C178.153 45.72 177.913 45.8 177.539 45.96L177.059 46.2L175.619 46.92C175.246 47.1867 173.859 48.0133 171.459 49.4C171.246 49.5067 170.899 49.72 170.419 50.04C169.886 50.3067 169.486 50.52 169.219 50.68C168.633 51 166.953 52.3067 164.179 54.6C161.353 56.9467 159.593 58.44 158.899 59.08L157.459 60.68C156.499 61.8533 155.806 62.7333 155.379 63.32C154.579 64.4933 153.833 65.6667 153.139 66.84C152.393 68.0667 151.566 69.5867 150.659 71.4C149.753 73.2667 149.059 74.9467 148.579 76.44C148.046 77.9333 147.806 79.3733 147.859 80.76C147.913 82.2 148.366 83.2933 149.219 84.04C149.539 84.36 150.073 84.28 150.819 83.8C151.513 83.3733 152.046 82.92 152.419 82.44C153.966 80.7867 155.459 79.1333 156.899 77.48C159.513 74.1733 161.033 72.2267 161.459 71.64C164.553 67.0533 166.846 63.6133 168.339 61.32L172.099 55.32C172.633 54.4667 173.219 53.56 173.859 52.6C174.446 51.64 175.113 50.5733 175.859 49.4C176.606 48.2267 177.193 47.32 177.619 46.68L178.259 45.72ZM207.06 37.16C204.98 38.0133 202.767 38.44 200.42 38.44C200.313 38.44 200.207 38.44 200.1 38.44C199.993 38.3867 199.913 38.36 199.86 38.36C201.247 36.6 201.833 34.4667 201.62 31.96C201.407 29.4 200.313 28.2267 198.34 28.44C196.473 28.6533 195.247 29.6133 194.66 31.32C194.073 33.0267 194.313 34.6 195.38 36.04L194.5 37.24C192.9 39.1067 192.313 40.8133 192.74 42.36C192.953 42.84 193.407 43.1333 194.1 43.24C194.74 43.3467 195.3 43.24 195.78 42.92C197.167 41.96 198.473 40.5467 199.7 38.68C200.233 38.7867 200.953 38.7867 201.86 38.68C203.833 38.4667 205.433 38.12 206.66 37.64C207.193 37.5333 207.673 37.2933 208.1 36.92C208.207 36.8133 208.207 36.76 208.1 36.76C207.94 36.76 207.593 36.8933 207.06 37.16ZM196.34 29.48C198.953 27.9867 200.553 28.4667 201.14 30.92C201.62 33 201.327 35.08 200.26 37.16C200.047 37.64 199.807 38.0133 199.54 38.28C199.22 38.28 198.793 38.1467 198.26 37.88C198.047 37.7733 197.807 37.5867 197.54 37.32L197.06 37L197.46 36.52L199.06 34.76C199.22 34.6 199.327 34.3867 199.38 34.12C199.433 33.8533 199.38 33.6667 199.22 33.56C199.113 33.4 198.9 33.3733 198.58 33.48C197.993 33.7467 197.033 34.4933 195.7 35.72C194.9 34.6533 194.58 33.5333 194.74 32.36C194.953 31.1333 195.487 30.1733 196.34 29.48ZM199.3 38.6L198.74 39.4C197.62 40.9467 196.633 41.9867 195.78 42.52C195.193 42.8933 194.767 43 194.5 42.84C194.233 42.68 194.127 42.36 194.18 41.88C194.287 41.4 194.9 40.2533 196.02 38.44C196.393 37.8533 196.66 37.48 196.82 37.32C196.873 37.3733 196.953 37.4533 197.06 37.56C197.22 37.6667 197.38 37.7733 197.54 37.88C197.7 37.9867 197.86 38.0667 198.02 38.12C198.66 38.44 199.087 38.6 199.3 38.6Z" fill="white"/>
</svg>
